<?xml version="1.0" standalone="no"?>
<!DOCTYPE svg PUBLIC "-//W3C//DTD SVG 20010904//EN"
 "http://www.w3.org/TR/2001/REC-SVG-20010904/DTD/svg10.dtd">
<svg version="1.0" xmlns="http://www.w3.org/2000/svg"
 width="603.000000pt" height="603.000000pt" viewBox="0 0 603.000000 603.000000"
 preserveAspectRatio="xMidYMid meet">
<metadata>
Created by potrace 1.16, written by Peter Selinger 2001-2019
</metadata>
<g transform="translate(0.000000,603.000000) scale(0.100000,-0.100000)"
fill="#000000" stroke="none">
<path d="M1561 6013 l-1554 -3 6 -1517 c4 -834 7 -2184 7 -3000 l0 -1483 2998
6 c1648 4 2999 8 3001 10 2 2 0 1351 -4 2998 l-8 2996 -1446 -2 c-795 -2
-2145 -4 -3000 -5z m3527 -2695 l2 -1028 -255 0 -255 0 0 46 c0 46 0 46 -22
30 -102 -73 -216 -106 -374 -106 -210 0 -370 64 -509 204 -118 119 -178 235
-211 404 -22 115 -16 326 11 413 5 16 1 19 -28 19 -70 0 -140 -29 -189 -80
-76 -79 -78 -91 -78 -542 l0 -388 -280 0 -280 0 0 233 0 232 -33 -66 c-98
-195 -273 -335 -502 -405 -82 -25 -105 -27 -255 -27 -151 -1 -172 2 -253 26
-262 81 -446 243 -532 471 -105 279 -48 592 147 801 123 132 270 213 457 250
180 37 431 6 584 -71 159 -81 294 -218 362 -367 l24 -52 0 238 1 237 270 0
270 0 0 -85 0 -86 60 64 c65 70 148 117 238 136 100 21 92 35 92 -161 l0 -171
32 49 c49 75 149 167 225 206 120 64 201 83 343 82 109 0 135 -3 202 -27 42
-14 99 -40 126 -57 27 -16 53 -30 57 -30 4 0 5 142 1 315 l-7 314 98 4 c54 2
179 3 278 3 l180 -1 3 -1027z"/>
<path d="M1765 3341 c-90 -25 -151 -75 -186 -154 -33 -73 -35 -229 -3 -298 46
-98 126 -151 241 -157 60 -3 80 0 125 20 104 48 158 133 166 259 8 139 -44
247 -145 302 -55 29 -146 42 -198 28z"/>
<path d="M4152 3324 c-80 -40 -123 -106 -142 -217 -14 -77 -1 -176 30 -237 80
-157 329 -186 440 -52 67 81 90 231 54 351 -18 63 -81 136 -139 162 -63 29
-177 26 -243 -7z"/>
</g>
</svg>
